<svg xmlns="http://www.w3.org/2000/svg" version="1.1" xmlns:xlink="http://www.w3.org/1999/xlink" xmlns:svgjs="http://svgjs.com/svgjs" width="1440" height="800" preserveAspectRatio="none" viewBox="0 0 1440 800"><g mask="url(&quot;#SvgjsMask1101&quot;)" fill="none"><rect width="1440" height="800" x="0" y="0" fill="rgba(255, 251, 229, 1)"></rect><path d="M 0,91 C 72,128.8 216,298 360,280 C 504,262 576,5 720,1 C 864,-3 936,260.2 1080,260 C 1224,259.8 1368,52 1440,0L1440 800L0 800z" fill="rgba(200, 182, 166, 1)"></path><path d="M 0,672 C 57.6,623.6 172.8,406.6 288,430 C 403.2,453.4 460.8,777.6 576,789 C 691.2,800.4 748.8,503 864,487 C 979.2,471 1036.8,694 1152,709 C 1267.2,724 1382.4,591.4 1440,562L1440 800L0 800z" fill="rgba(141, 123, 104, 1)"></path></g><defs><mask id="SvgjsMask1101"><rect width="1440" height="800" fill="#ffffff"></rect></mask></defs></svg>